<svg xmlns="http://www.w3.org/2000/svg" xmlns:xlink="http://www.w3.org/1999/xlink"><defs>
    <style>
      .cls-1 {
        fill: #95e1d3;
        fill-rule: evenodd;
      }
    </style>
  
    <style>
      .cls-1 {
        fill: #95e1d3;
        fill-rule: evenodd;
      }
    </style>
  
    <style>
      .cls-1 {
        fill: #95e1d3;
        fill-rule: evenodd;
      }
    </style>
  <style>.cls-1 {fill: #f38181;fill-rule: evenodd;}</style><style>.cls-1 {fill: #f38181;fill-rule: evenodd;}</style>
    <style>
      .cls-1 {
        fill: #95e1d3;
        fill-rule: evenodd;
      }
    </style>
  <style>.cls-1 {fill: #f38181;fill-rule: evenodd;}</style>
    <style>
      .cls-1 {
        fill: #95e1d3;
        fill-rule: evenodd;
      }
    </style>
  <style>.cls-1 {fill: #f38181;fill-rule: evenodd;}</style></defs><symbol id="icon-cart"><g><path fill="rgb(255,255,255)" stroke="none" paint-order="stroke fill markers" fill-rule="evenodd" d=" M 18.725997924804688 4.662798166275024 C 18.725997924804688 4.662798166275024 18.727256774902344 4.663402318954468 18.727256774902344 4.663402318954468 C 18.727256774902344 4.663402318954468 16.252357482910156 10.163155198097229 16.252357482910156 10.163155198097229 C 16.252357482910156 10.163155198097229 16.252243041992188 10.163155198097229 16.252243041992188 10.163155198097229 C 16.13013458251953 10.434268712997437 15.866119384765625 10.62744653224945 15.554840087890625 10.647685647010803 C 15.554840087890625 10.647685647010803 15.554840087890625 10.647685647010803 15.554840087890625 10.647685647010803 C 15.554840087890625 10.647685647010803 8.427230834960938 11.122700691223145 8.427230834960938 11.122700691223145 C 8.427230834960938 11.122700691223145 8.8389892578125 12.299288034439087 8.8389892578125 12.299288034439087 C 8.8389892578125 12.299288034439087 16.60002899169922 12.299288034439087 16.60002899169922 12.299288034439087 C 17.511207580566406 12.299288034439087 18.249923706054688 13.038468837738037 18.249923706054688 13.949833154678345 C 18.249923706054688 14.861197471618652 17.511207580566406 15.599623084068298 16.60002899169922 15.599623084068298 C 15.688735961914062 15.599623084068298 14.949905395507812 14.861197471618652 14.949905395507812 13.949833154678345 C 14.949905395507812 13.949833154678345 7.249977111816406 13.949833154678345 7.249977111816406 13.949833154678345 C 7.249977111816406 14.861197471618652 6.511260986328125 15.599623084068298 5.599967956542969 15.599623084068298 C 4.6886749267578125 15.599623084068298 3.9499588012695312 14.861197471618652 3.9499588012695312 13.949833154678345 C 3.9499588012695312 13.038468837738037 4.6886749267578125 12.299288034439087 5.599967956542969 12.299288034439087 C 5.599967956542969 12.299288034439087 7.090904235839844 12.299288034439087 7.090904235839844 12.299288034439087 C 7.090904235839844 12.299288034439087 3.9147109985351562 3.2246127128601074 3.9147109985351562 3.2246127128601074 C 3.9147109985351562 3.2246127128601074 2.0249481201171875 3.2246127128601074 2.0249481201171875 3.2246127128601074 C 1.5693588256835938 3.2246127128601074 1.1999435424804688 2.8550223112106323 1.1999435424804688 2.3996422290802 C 1.1999435424804688 1.944262146949768 1.5693588256835938 1.574671745300293 2.0249481201171875 1.574671745300293 C 2.0249481201171875 1.574671745300293 4.499961853027344 1.574671745300293 4.499961853027344 1.574671745300293 C 4.8598785400390625 1.574671745300293 5.1629180908203125 1.8065153360366821 5.2755279541015625 2.128377676010132 C 5.2755279541015625 2.128377676010132 5.278617858886719 2.127169370651245 5.278617858886719 2.127169370651245 C 5.278617858886719 2.127169370651245 5.759040832519531 3.4999552965164185 5.759040832519531 3.4999552965164185 C 5.759040832519531 3.4999552965164185 17.97492218017578 3.4999552965164185 17.97492218017578 3.4999552965164185 C 18.430625915527344 3.4999552965164185 18.7999267578125 3.86894154548645 18.7999267578125 4.324925780296326 C 18.7999267578125 4.445303201675415 18.77257537841797 4.559034943580627 18.725997924804688 4.662798166275024 Z M 6.336509704589844 5.149745225906372 C 6.336509704589844 5.149745225906372 7.861663818359375 9.50689435005188 7.861663818359375 9.50689435005188 C 7.861663818359375 9.50689435005188 14.950935363769531 9.034144878387451 14.950935363769531 9.034144878387451 C 14.950935363769531 9.034144878387451 16.699020385742188 5.149745225906372 16.699020385742188 5.149745225906372 C 16.699020385742188 5.149745225906372 6.336509704589844 5.149745225906372 6.336509704589844 5.149745225906372 Z"/></g></symbol><symbol id="icon-creativity" viewBox="0 0 31 28">
  <metadata><?xpacket begin="﻿" id="W5M0MpCehiHzreSzNTczkc9d"?>
<x:xmpmeta xmlns:x="adobe:ns:meta/" x:xmptk="Adobe XMP Core 5.6-c138 79.159824, 2016/09/14-01:09:01        ">
   <rdf:RDF xmlns:rdf="http://www.w3.org/1999/02/22-rdf-syntax-ns#">
      <rdf:Description rdf:about=""/>
   </rdf:RDF>
</x:xmpmeta>
                                                                                                    
                                                                                                    
                                                                                                    
                                                                                                    
                                                                                                    
                                                                                                    
                                                                                                    
                                                                                                    
                                                                                                    
                                                                                                    
                                                                                                    
                                                                                                    
                                                                                                    
                                                                                                    
                                                                                                    
                                                                                                    
                                                                                                    
                                                                                                    
                                                                                                    
                                                                                                    
                           
<?xpacket end="w"?></metadata>

  <path id="COMPUTER_OK" data-name="COMPUTER / OK" class="cls-1" d="M1220,1250h-9.5v2.5l2,2v0.5h-13v-0.5l2-2V1250H1192a1.5,1.5,0,0,1-1.5-1.5v-20a1.5,1.5,0,0,1,1.5-1.5h28a1.5,1.5,0,0,1,1.5,1.5v20A1.5,1.5,0,0,1,1220,1250Zm-0.5-21h-27v17h27v-17Zm-16.5,7a1.505,1.505,0,0,1,1.06.44h0l0.94,0.94,2.94-2.94h0a1.5,1.5,0,1,1,2.12,2.12h0l-4,4h0a1.5,1.5,0,0,1-2.12,0h0l-2-2h0A1.5,1.5,0,0,1,1203,1236Z" transform="translate(-1190.5 -1227)"/>
</symbol><symbol id="icon-css_html" viewBox="0 0 32 30.5">
  <metadata><?xpacket begin="﻿" id="W5M0MpCehiHzreSzNTczkc9d"?>
<x:xmpmeta xmlns:x="adobe:ns:meta/" x:xmptk="Adobe XMP Core 5.6-c138 79.159824, 2016/09/14-01:09:01        ">
   <rdf:RDF xmlns:rdf="http://www.w3.org/1999/02/22-rdf-syntax-ns#">
      <rdf:Description rdf:about=""/>
   </rdf:RDF>
</x:xmpmeta>
                                                                                                    
                                                                                                    
                                                                                                    
                                                                                                    
                                                                                                    
                                                                                                    
                                                                                                    
                                                                                                    
                                                                                                    
                                                                                                    
                                                                                                    
                                                                                                    
                                                                                                    
                                                                                                    
                                                                                                    
                                                                                                    
                                                                                                    
                                                                                                    
                                                                                                    
                                                                                                    
                           
<?xpacket end="w"?></metadata>

  <path id="HOME" class="cls-1" d="M822,1412.5a1.493,1.493,0,0,1-2.52,1.09l0,0.01-13.439-13.44h0l-0.038-.04h0l-13.446,13.45h0a1.525,1.525,0,0,1-1.053.43,1.5,1.5,0,0,1-1.5-1.5,1.479,1.479,0,0,1,.461-1.08l14.458-14.46a1.51,1.51,0,0,1,1.081-.46h0.092c0.023,0,.045.01,0.068,0.01h0a1.479,1.479,0,0,1,.933.47h0l5.9,5.9v-1.38a1.5,1.5,0,0,1,3,0v4.38l5.6,5.6h0A1.485,1.485,0,0,1,822,1412.5Zm-3,2.5v10.5a1.5,1.5,0,0,1-1.5,1.5h-3v-12h-6v12h-14a1.5,1.5,0,0,1-1.5-1.5V1415l13-13Zm-15.5,0h-6v6h6v-6Z" transform="translate(-790 -1396.5)"/>
</symbol><symbol id="icon-digital" viewBox="0 0 32 32">
  <metadata><?xpacket begin="﻿" id="W5M0MpCehiHzreSzNTczkc9d"?>
<x:xmpmeta xmlns:x="adobe:ns:meta/" x:xmptk="Adobe XMP Core 5.6-c138 79.159824, 2016/09/14-01:09:01        ">
   <rdf:RDF xmlns:rdf="http://www.w3.org/1999/02/22-rdf-syntax-ns#">
      <rdf:Description rdf:about=""/>
   </rdf:RDF>
</x:xmpmeta>
                                                                                                    
                                                                                                    
                                                                                                    
                                                                                                    
                                                                                                    
                                                                                                    
                                                                                                    
                                                                                                    
                                                                                                    
                                                                                                    
                                                                                                    
                                                                                                    
                                                                                                    
                                                                                                    
                                                                                                    
                                                                                                    
                                                                                                    
                                                                                                    
                                                                                                    
                                                                                                    
                           
<?xpacket end="w"?></metadata>

  <path id="IMAGE" class="cls-1" d="M1220.5,1428h-29a1.5,1.5,0,0,1-1.5-1.5v-29a1.5,1.5,0,0,1,1.5-1.5h29a1.5,1.5,0,0,1,1.5,1.5v29A1.5,1.5,0,0,1,1220.5,1428Zm-1.5-29h-26v26h26v-26Zm-22.5,1.5h5.5a1.5,1.5,0,0,1,0,3h-4.5v4.5h0a1.5,1.5,0,0,1-3,0h0v-5.5h0v-2h2Zm-2,15.5h0a1.5,1.5,0,0,1,3,0h0v4.5h4.5a1.5,1.5,0,0,1,0,3h-7.5v-2h0V1416Zm15.5-15.5h7.5v2h0v5.5h0a1.5,1.5,0,0,1-3,0h0v-4.5H1210A1.5,1.5,0,0,1,1210,1400.5Zm0,20h4.5V1416h0a1.5,1.5,0,0,1,3,0h0v5.5h0v2H1210A1.5,1.5,0,0,1,1210,1420.5Z" transform="translate(-1190 -1396)"/>
</symbol><symbol id="icon-facebook" viewBox="0 0 12.031 25.62"><metadata><?xpacket begin="﻿" id="W5M0MpCehiHzreSzNTczkc9d"?><x:xmpmeta xmlns:x="adobe:ns:meta/" x:xmptk="Adobe XMP Core 5.6-c138 79.159824, 2016/09/14-01:09:01"><rdf:RDF xmlns:rdf="http://www.w3.org/1999/02/22-rdf-syntax-ns#"><rdf:Description rdf:about=""/></rdf:RDF></x:xmpmeta><?xpacket end="w"?></metadata><path class="cls-1 social-wrapper__svg" d="M463.089,2060.2v4.12s-3.037-.3-3.8.86c-0.416.64-.169,2.5-0.206,3.84h4.029c-0.34,1.56-.584,2.62-0.835,3.98h-3.216v12.8h-5.582c0-3.95,0-8.55,0-12.75h-2.375v-4.03h2.349c0.12-2.95.165-5.87,1.629-7.35C456.728,2060,458.3,2060.2,463.089,2060.2Z" transform="translate(-451.094 -2060.19)"/></symbol><symbol id="icon-instagram" viewBox="0 0 25.593 25.62"><metadata><?xpacket begin="﻿" id="W5M0MpCehiHzreSzNTczkc9d"?><x:xmpmeta xmlns:x="adobe:ns:meta/" x:xmptk="Adobe XMP Core 5.6-c138 79.159824, 2016/09/14-01:09:01"><rdf:RDF xmlns:rdf="http://www.w3.org/1999/02/22-rdf-syntax-ns#"><rdf:Description rdf:about=""/></rdf:RDF></x:xmpmeta><?xpacket end="w"?></metadata><path class="cls-1 social-wrapper__svg" d="M632.7,2085.8H613.5a3.2,3.2,0,0,1-3.2-3.2v-19.2a3.2,3.2,0,0,1,3.2-3.2h19.2a3.2,3.2,0,0,1,3.2,3.2v19.2A3.2,3.2,0,0,1,632.7,2085.8Zm-9.6-17.76a4.954,4.954,0,0,0-4.5,2.88h0a0.244,0.244,0,0,1-.022.05c-0.047.11-.088,0.22-0.128,0.33-0.019.05-.04,0.1-0.057,0.15-0.037.11-.067,0.23-0.1,0.34-0.014.05-.03,0.11-0.042,0.16-0.026.12-.044,0.24-0.061,0.37-0.007.05-.017,0.1-0.023,0.15a5.074,5.074,0,0,0-.029.53,4.96,4.96,0,1,0,9.92,0,5.074,5.074,0,0,0-.029-0.53c-0.006-.05-0.016-0.1-0.023-0.15-0.017-.13-0.035-0.25-0.061-0.37-0.012-.05-0.028-0.11-0.042-0.16-0.028-.11-0.058-0.23-0.1-0.34-0.017-.05-0.038-0.1-0.057-0.15-0.04-.11-0.081-0.22-0.128-0.33a0.244,0.244,0,0,1-.022-0.05h0A4.954,4.954,0,0,0,623.1,2068.04Zm9.92-3.68a1.278,1.278,0,0,0-1.28-1.28h-2.56a1.278,1.278,0,0,0-1.28,1.28v2.56a1.278,1.278,0,0,0,1.28,1.28h2.56a1.278,1.278,0,0,0,1.28-1.28v-2.56Zm0,6.56h-2.36a7.84,7.84,0,1,1-15.12,0h-2.36v10.72a1.278,1.278,0,0,0,1.28,1.28h17.28a1.278,1.278,0,0,0,1.28-1.28v-10.72Z" transform="translate(-610.313 -2060.19)"/></symbol><symbol id="icon-photography" viewBox="0 0 32 30.5">
  <metadata><?xpacket begin="﻿" id="W5M0MpCehiHzreSzNTczkc9d"?>
<x:xmpmeta xmlns:x="adobe:ns:meta/" x:xmptk="Adobe XMP Core 5.6-c138 79.159824, 2016/09/14-01:09:01        ">
   <rdf:RDF xmlns:rdf="http://www.w3.org/1999/02/22-rdf-syntax-ns#">
      <rdf:Description rdf:about=""/>
   </rdf:RDF>
</x:xmpmeta>
                                                                                                    
                                                                                                    
                                                                                                    
                                                                                                    
                                                                                                    
                                                                                                    
                                                                                                    
                                                                                                    
                                                                                                    
                                                                                                    
                                                                                                    
                                                                                                    
                                                                                                    
                                                                                                    
                                                                                                    
                                                                                                    
                                                                                                    
                                                                                                    
                                                                                                    
                                                                                                    
                           
<?xpacket end="w"?></metadata>

  <path id="ALARM" class="cls-1" d="M420.74,1236.5a15.727,15.727,0,0,0-8.243-8.24A5.868,5.868,0,0,1,420.74,1236.5Zm-0.24,6.5a14.442,14.442,0,0,1-3.963,9.94l2.029,2.03a1.482,1.482,0,0,1-1.049,2.53,1.51,1.51,0,0,1-1.049-.43l-2.178-2.18a14.471,14.471,0,0,1-16.566.01l-2.163,2.16a1.5,1.5,0,1,1-2.122-2.12l2.012-2.01A14.495,14.495,0,1,1,420.5,1243ZM406,1231.5a11.5,11.5,0,1,0,11.5,11.5A11.5,11.5,0,0,0,406,1231.5Zm6,13h-6a1.5,1.5,0,0,1-1.5-1.5v-8a1.5,1.5,0,0,1,3,0v6.5H412A1.5,1.5,0,0,1,412,1244.5Zm-20.713-7.79A6,6,0,0,1,396,1227a5.935,5.935,0,0,1,3.706,1.29A16.016,16.016,0,0,0,391.287,1236.71Z" transform="translate(-390 -1227)"/>
</symbol><symbol id="icon-pinterest" viewBox="0 0 19.594 25.62"><metadata><?xpacket begin="﻿" id="W5M0MpCehiHzreSzNTczkc9d"?><x:xmpmeta xmlns:x="adobe:ns:meta/" x:xmptk="Adobe XMP Core 5.6-c138 79.159824, 2016/09/14-01:09:01"><rdf:RDF xmlns:rdf="http://www.w3.org/1999/02/22-rdf-syntax-ns#"><rdf:Description rdf:about=""/></rdf:RDF></x:xmpmeta><?xpacket end="w"?></metadata><path class="cls-1 social-wrapper__svg" d="M566.051,2076.85c-0.209.84-.42,1.71-0.638,2.56a18.96,18.96,0,0,1-.718,2.47,12.691,12.691,0,0,1-2.043,3.53c-0.575.66-.453,0.4-0.626,0.36-0.132-.03-0.143-0.16-0.169-0.34a19.314,19.314,0,0,1,.007-3.34,18.15,18.15,0,0,1,.589-3.48c0.484-2.06.946-4.08,1.435-6.16a1.422,1.422,0,0,0,.09-0.44,6.471,6.471,0,0,1-.429-1.7,5.448,5.448,0,0,1,.139-1.95,3.224,3.224,0,0,1,1.894-2.34,2.206,2.206,0,0,1,1.735.14,1.851,1.851,0,0,1,.867,1.24,4.463,4.463,0,0,1-.08,1.89c-0.267,1.22-.618,2.14-0.937,3.31a3.648,3.648,0,0,0-.189,1.81,2.119,2.119,0,0,0,.847,1.28,2.493,2.493,0,0,0,1.625.46,3.572,3.572,0,0,0,2.651-1.57,9.309,9.309,0,0,0,1.675-4.69,11.565,11.565,0,0,0,.07-2.01,5.473,5.473,0,0,0-1.127-3.12,5.282,5.282,0,0,0-2.512-1.71,8.285,8.285,0,0,0-3.747-.23,6.613,6.613,0,0,0-4.915,3.53,7.085,7.085,0,0,0-.837,3.41,4.438,4.438,0,0,0,.678,2.5c0.133,0.2.328,0.37,0.458,0.6a1.718,1.718,0,0,1-.119,1.16c-0.11.43-.122,1.01-0.618,1.02a1.377,1.377,0,0,1-.638-0.24,5.108,5.108,0,0,1-2.422-3.74,8.878,8.878,0,0,1,0-3.23,9.244,9.244,0,0,1,4.4-6.15,10.4,10.4,0,0,1,3.907-1.34,13.322,13.322,0,0,1,1.605-.13,9.627,9.627,0,0,1,4.326.8,8.862,8.862,0,0,1,2.98,2.15,8.14,8.14,0,0,1,1.834,3.31,7.922,7.922,0,0,1,.4,2.29,13.861,13.861,0,0,1-.308,2.37,9.315,9.315,0,0,1-3.838,6.45,6.924,6.924,0,0,1-4,1.1,4.642,4.642,0,0,1-1.983-.58A3.306,3.306,0,0,1,566.051,2076.85Z" transform="translate(-557.906 -2060.22)"/></symbol><symbol id="icon-search"><g><path fill="rgb(255,255,255)" stroke="none" paint-order="stroke fill markers" fill-rule="evenodd" d=" M 18.316757202148438 15.982783198356628 C 18.615333557128906 16.28138566017151 18.7999267578125 16.693870902061462 18.7999267578125 17.149855136871338 C 18.7999267578125 18.061219453811646 18.06121063232422 18.79964506626129 17.15003204345703 18.79964506626129 C 16.69432830810547 18.79964506626129 16.281768798828125 18.614925384521484 15.983192443847656 18.316322922706604 C 15.983192443847656 18.316322922706604 15.983192443847656 18.316322922706604 15.983192443847656 18.316322922706604 C 15.983192443847656 18.316322922706604 11.147491455078125 13.480533838272095 11.147491455078125 13.480533838272095 C 10.165130615234375 14.061124563217163 9.023468017578125 14.399601101875305 7.799980163574219 14.399601101875305 C 4.1549224853515625 14.399601101875305 1.1999435424804688 11.444992423057556 1.1999435424804688 7.7996861934661865 C 1.1999435424804688 4.154833078384399 4.1549224853515625 1.199620246887207 7.799980163574219 1.199620246887207 C 11.445037841796875 1.199620246887207 14.39990234375 4.154833078384399 14.39990234375 7.7996861934661865 C 14.39990234375 9.02324640750885 14.0611572265625 10.164792895317078 13.480941772460938 11.14699411392212 C 13.480941772460938 11.14699411392212 18.316757202148438 15.982783198356628 18.316757202148438 15.982783198356628 C 18.316757202148438 15.982783198356628 18.316757202148438 15.982783198356628 18.316757202148438 15.982783198356628 Z M 7.799980163574219 2.8494101762771606 C 5.06610107421875 2.8494101762771606 2.8499526977539062 5.065593242645264 2.8499526977539062 7.7996861934661865 C 2.8499526977539062 10.533628106117249 5.06610107421875 12.749811172485352 7.799980163574219 12.749811172485352 C 10.533744812011719 12.749811172485352 12.749893188476562 10.533628106117249 12.749893188476562 7.7996861934661865 C 12.749893188476562 5.065593242645264 10.533744812011719 2.8494101762771606 7.799980163574219 2.8494101762771606 Z"/></g></symbol><symbol id="icon-seo" viewBox="0 0 32 32">
  <metadata><?xpacket begin="﻿" id="W5M0MpCehiHzreSzNTczkc9d"?>
<x:xmpmeta xmlns:x="adobe:ns:meta/" x:xmptk="Adobe XMP Core 5.6-c138 79.159824, 2016/09/14-01:09:01        ">
   <rdf:RDF xmlns:rdf="http://www.w3.org/1999/02/22-rdf-syntax-ns#">
      <rdf:Description rdf:about=""/>
   </rdf:RDF>
</x:xmpmeta>
                                                                                                    
                                                                                                    
                                                                                                    
                                                                                                    
                                                                                                    
                                                                                                    
                                                                                                    
                                                                                                    
                                                                                                    
                                                                                                    
                                                                                                    
                                                                                                    
                                                                                                    
                                                                                                    
                                                                                                    
                                                                                                    
                                                                                                    
                                                                                                    
                                                                                                    
                                                                                                    
                           
<?xpacket end="w"?></metadata>

  <path id="BOOK_2" data-name="BOOK 2" class="cls-1" d="M422.065,1421.89l-14.471,5.99a1.53,1.53,0,0,1-1.188,0l-14.471-5.99a1.5,1.5,0,0,1-.935-1.39v-23a1.5,1.5,0,0,1,1.5-1.5,1.55,1.55,0,0,1,.573.11h0a0.012,0.012,0,0,0,.013.01L407,1401.88l13.911-5.76a0.012,0.012,0,0,0,.013-0.01h0a1.55,1.55,0,0,1,.573-0.11,1.5,1.5,0,0,1,1.5,1.5v23A1.5,1.5,0,0,1,422.065,1421.89ZM405.5,1404.5l-11.5-4.76v19.76l11.5,4.76V1404.5Zm14.5-4.76-11.5,4.76v19.76l11.5-4.76v-19.76Zm-9.121,6.89,5.5-2.5h0A1.593,1.593,0,0,1,417,1404a1.5,1.5,0,0,1,.621,2.87h0l-5.5,2.5h0a1.6,1.6,0,0,1-.621.13A1.5,1.5,0,0,1,410.879,1406.63Zm0,5.5h0l5.5-2.5h0a1.593,1.593,0,0,1,.621-0.13,1.5,1.5,0,0,1,.621,2.87l-5.5,2.5v-0.01a1.445,1.445,0,0,1-.621.14A1.5,1.5,0,0,1,410.879,1412.13Zm0,5.5h0l5.5-2.5h0A1.593,1.593,0,0,1,417,1415a1.5,1.5,0,0,1,.621,2.87h0l-5.5,2.5h0a1.6,1.6,0,0,1-.621.13A1.5,1.5,0,0,1,410.879,1417.63ZM397,1404a1.6,1.6,0,0,1,.621.13h0l5.5,2.5h0a1.5,1.5,0,0,1-.621,2.87,1.593,1.593,0,0,1-.621-0.13h0l-5.5-2.5h0A1.5,1.5,0,0,1,397,1404Zm0,5.5a1.6,1.6,0,0,1,.621.13h0l5.5,2.5h0a1.5,1.5,0,0,1-.621,2.87,1.439,1.439,0,0,1-.621-0.14v0.01l-5.5-2.5h0A1.5,1.5,0,0,1,397,1409.5Zm0,5.5a1.6,1.6,0,0,1,.621.13h0l5.5,2.5h0a1.5,1.5,0,0,1-.621,2.87,1.593,1.593,0,0,1-.621-0.13h0l-5.5-2.5h0A1.5,1.5,0,0,1,397,1415Z" transform="translate(-391 -1396)"/>
</symbol><symbol id="icon-twitter" viewBox="0 0 25.594 20.79"><metadata><?xpacket begin="﻿" id="W5M0MpCehiHzreSzNTczkc9d"?><x:xmpmeta xmlns:x="adobe:ns:meta/" x:xmptk="Adobe XMP Core 5.6-c138 79.159824, 2016/09/14-01:09:01"><rdf:RDF xmlns:rdf="http://www.w3.org/1999/02/22-rdf-syntax-ns#"><rdf:Description rdf:about=""/></rdf:RDF></x:xmpmeta><?xpacket end="w"?></metadata><path class="cls-1 social-wrapper__svg" d="M516.513,2062.6a5.393,5.393,0,0,1,4.151,1.65,8.665,8.665,0,0,0,2.691-.91l0.653-.36a5.272,5.272,0,0,1-1.7,2.47,2.512,2.512,0,0,1-.577.41v0.01a9.769,9.769,0,0,0,2.973-.8v0.01a8.535,8.535,0,0,1-1.781,2.04c-0.273.22-.547,0.44-0.82,0.65a15.155,15.155,0,0,1-.243,3.38c-1.312,5.89-4.788,9.89-10.289,11.61a15.83,15.83,0,0,1-7.432.31,19.915,19.915,0,0,1-3.087-1.01,12.912,12.912,0,0,1-1.487-.77c-0.154-.09-0.307-0.19-0.461-0.28a9.219,9.219,0,0,0,1.678.06c0.517-.08,1.023-0.06,1.5-0.16a10.77,10.77,0,0,0,3.151-1.14,5.97,5.97,0,0,0,1.423-.93,4.58,4.58,0,0,1-1.563-.28,5.294,5.294,0,0,1-3.332-3.36,5.194,5.194,0,0,0,2.345-.11,3.767,3.767,0,0,1-1.717-.69,5.032,5.032,0,0,1-2.473-4.49c0.18,0.08.359,0.17,0.538,0.25a5.152,5.152,0,0,0,1.1.31,1.444,1.444,0,0,0,.718.06h-0.026c-0.264-.3-0.695-0.51-0.961-0.84a5.365,5.365,0,0,1-1.179-4.76,6,6,0,0,1,.564-1.37c0.009,0,.017.01,0.026,0.01a3.044,3.044,0,0,0,.474.55,9.443,9.443,0,0,0,1.563,1.5,15.43,15.43,0,0,0,6.419,3.1,10.137,10.137,0,0,0,2.358.31,4.908,4.908,0,0,1,.025-2.47,5.165,5.165,0,0,1,2.973-3.52,5.9,5.9,0,0,1,1.166-.36C516.086,2062.65,516.3,2062.63,516.513,2062.6Z" transform="translate(-499.094 -2062.59)"/></symbol><symbol id="icon-web_design"><g><path fill="rgb(149,225,211)" stroke="none" paint-order="stroke fill markers" fill-rule="evenodd" d=" M 31.49993896484375 33.999786496162415 C 31.49993896484375 33.999786496162415 2.4999237060546875 33.999786496162415 2.4999237060546875 33.999786496162415 C 1.671600341796875 33.999786496162415 1.00006103515625 33.3279687166214 1.00006103515625 32.49952435493469 C 1.00006103515625 32.49952435493469 1.00006103515625 3.499440550804138 1.00006103515625 3.499440550804138 C 1.00006103515625 2.671600341796875 1.671600341796875 1.9997825622558594 2.4999237060546875 1.9997825622558594 C 2.4999237060546875 1.9997825622558594 31.49993896484375 1.9997825622558594 31.49993896484375 1.9997825622558594 C 32.32837677001953 1.9997825622558594 33.000030517578125 2.671600341796875 33.000030517578125 3.499440550804138 C 33.000030517578125 3.499440550804138 33.000030517578125 32.49952435493469 33.000030517578125 32.49952435493469 C 33.000030517578125 33.3279687166214 32.32837677001953 33.999786496162415 31.49993896484375 33.999786496162415 Z M 29.999961853027344 4.99970269203186 C 29.999961853027344 4.99970269203186 4.0000152587890625 4.99970269203186 4.0000152587890625 4.99970269203186 C 4.0000152587890625 4.99970269203186 4.0000152587890625 30.999866366386414 4.0000152587890625 30.999866366386414 C 4.0000152587890625 30.999866366386414 29.999961853027344 30.999866366386414 29.999961853027344 30.999866366386414 C 29.999961853027344 30.999866366386414 29.999961853027344 4.99970269203186 29.999961853027344 4.99970269203186 Z M 6.215362548828125 18.238500356674194 C 6.215362548828125 18.238500356674194 6.2146759033203125 18.237292051315308 6.2146759033203125 18.237292051315308 C 6.2146759033203125 18.237292051315308 10.214614868164062 15.737459301948547 10.214614868164062 15.737459301948547 C 10.214614868164062 15.737459301948547 10.215415954589844 15.738667607307434 10.215415954589844 15.738667607307434 C 10.4437255859375 15.598051071166992 10.712318420410156 15.516943573951721 10.999908447265625 15.516943573951721 C 11.311302185058594 15.516943573951721 11.600379943847656 15.611795544624329 11.840133666992188 15.774463653564453 C 11.840133666992188 15.774463653564453 11.845970153808594 15.765552401542664 11.845970153808594 15.765552401542664 C 11.845970153808594 15.765552401542664 18.47667694091797 20.185835480690002 18.47667694091797 20.185835480690002 C 18.47667694091797 20.185835480690002 26.11492156982422 14.794528007507324 26.11492156982422 14.794528007507324 C 26.36302947998047 14.612829089164734 26.668930053710938 14.505440950393677 27.00000762939453 14.505440950393677 C 27.828330993652344 14.505440950393677 28.499984741210938 15.176654577255249 28.499984741210938 16.005098938941956 C 28.499984741210938 16.505186319351196 28.254966735839844 16.94803023338318 27.878456115722656 17.220503091812134 C 27.878456115722656 17.220503091812134 27.87891387939453 17.221107244491577 27.87891387939453 17.221107244491577 C 27.87891387939453 17.221107244491577 19.378929138183594 23.22140061855316 19.378929138183594 23.22140061855316 C 19.378929138183594 23.22140061855316 19.37847137451172 23.22079646587372 19.37847137451172 23.22079646587372 C 19.131507873535156 23.399625658988953 18.828125 23.50520133972168 18.500022888183594 23.50520133972168 C 18.179359436035156 23.50520133972168 17.88238525390625 23.4044588804245 17.638626098632812 23.232728481292725 C 17.638626098632812 23.232728481292725 10.982398986816406 18.79522705078125 10.982398986816406 18.79522705078125 C 10.982398986816406 18.79522705078125 7.846832275390625 20.754947304725647 7.846832275390625 20.754947304725647 C 7.6058197021484375 20.920183062553406 7.3142242431640625 21.017300605773926 6.999969482421875 21.017300605773926 C 6.171531677246094 21.017300605773926 5.499992370605469 20.34548282623291 5.499992370605469 19.517038464546204 C 5.499992370605469 18.976472854614258 5.786323547363281 18.502515077590942 6.215362548828125 18.238500356674194 Z"/></g></symbol></svg>