<svg version="1.1" xmlns="http://www.w3.org/2000/svg" width="35" height="35"><path fill="#95E1D3" stroke="none" paint-order="stroke fill markers" fill-rule="evenodd" d="M31.5 34h-29A1.5 1.5 0 0 1 1 32.5v-29A1.5 1.5 0 0 1 2.5 2h29A1.5 1.5 0 0 1 33 3.5v29a1.5 1.5 0 0 1-1.5 1.5zM30 5H4v26h26V5zM6.215 18.239v-.002l4-2.5v.002a1.49 1.49 0 0 1 .785-.222c.311 0 .6.095.84.257l.006-.008 6.63 4.42 7.639-5.391a1.5 1.5 0 0 1 1.764 2.426l-8.5 6a1.493 1.493 0 0 1-1.74.012l-6.657-4.438-3.135 1.96a1.5 1.5 0 0 1-1.631-2.516z"/></svg>