<svg xmlns="http://www.w3.org/2000/svg" width="32" height="32"><defs><style>.cls-1{fill:#95e1d3;fill-rule:evenodd}</style></defs><path id="IMAGE" class="cls-1" d="M1220.5 1428h-29a1.5 1.5 0 0 1-1.5-1.5v-29a1.5 1.5 0 0 1 1.5-1.5h29a1.5 1.5 0 0 1 1.5 1.5v29a1.5 1.5 0 0 1-1.5 1.5zm-1.5-29h-26v26h26v-26zm-22.5 1.5h5.5a1.5 1.5 0 0 1 0 3h-4.5v4.5a1.5 1.5 0 0 1-3 0v-7.5h2zm-2 15.5a1.5 1.5 0 0 1 3 0v4.5h4.5a1.5 1.5 0 0 1 0 3h-7.5v-7.5zm15.5-15.5h7.5v7.5a1.5 1.5 0 0 1-3 0v-4.5h-4.5a1.5 1.5 0 0 1 0-3zm0 20h4.5v-4.5a1.5 1.5 0 0 1 3 0v7.5h-7.5a1.5 1.5 0 0 1 0-3z" transform="translate(-1190 -1396)"/></svg>