<svg xmlns="http://www.w3.org/2000/svg" width="31" height="28"><defs><style>.cls-1{fill:#95e1d3;fill-rule:evenodd}</style></defs><path id="COMPUTER_OK" data-name="COMPUTER / OK" class="cls-1" d="M1220 1250h-9.5v2.5l2 2v.5h-13v-.5l2-2v-2.5h-9.5a1.5 1.5 0 0 1-1.5-1.5v-20a1.5 1.5 0 0 1 1.5-1.5h28a1.5 1.5 0 0 1 1.5 1.5v20a1.5 1.5 0 0 1-1.5 1.5zm-.5-21h-27v17h27v-17zm-16.5 7a1.505 1.505 0 0 1 1.06.44l.94.94 2.94-2.94a1.5 1.5 0 1 1 2.12 2.12l-4 4a1.5 1.5 0 0 1-2.12 0l-2-2a1.5 1.5 0 0 1 1.06-2.56z" transform="translate(-1190.5 -1227)"/></svg>