<svg 
 xmlns="http://www.w3.org/2000/svg"
 xmlns:xlink="http://www.w3.org/1999/xlink"
 width="17px" height="17px">
<path fill-rule="evenodd"  fill="rgb(255, 255, 255)"
 d="M15.617,4.149 L9.936,4.149 L12.177,1.466 C12.213,1.473 12.244,1.486 12.281,1.486 C12.650,1.486 12.948,1.189 12.948,0.821 C12.948,0.454 12.650,0.155 12.281,0.155 C11.914,0.155 11.614,0.454 11.614,0.821 C11.614,0.901 11.634,0.975 11.660,1.046 L9.068,4.149 L8.824,4.149 L6.233,1.046 C6.258,0.975 6.278,0.901 6.278,0.821 C6.278,0.454 5.979,0.155 5.611,0.155 C5.243,0.155 4.943,0.454 4.943,0.821 C4.943,1.189 5.243,1.486 5.611,1.486 C5.648,1.486 5.680,1.473 5.714,1.466 L7.956,4.149 L2.275,4.149 C1.539,4.149 0.942,4.745 0.942,5.479 L0.942,14.798 C0.942,15.533 1.539,16.129 2.275,16.129 L15.617,16.129 C16.353,16.129 16.950,15.533 16.950,14.798 L16.950,5.479 C16.950,4.745 16.353,4.149 15.617,4.149 ZM12.948,13.466 C12.948,14.201 12.351,14.798 11.614,14.798 L3.610,14.798 C2.873,14.798 2.275,14.201 2.275,13.466 L2.275,6.811 C2.275,6.075 2.873,5.479 3.610,5.479 L11.614,5.479 C12.351,5.479 12.948,6.075 12.948,6.811 L12.948,13.466 ZM14.914,7.518 C14.387,7.518 13.961,7.092 13.961,6.567 C13.961,6.042 14.387,5.617 14.914,5.617 C15.439,5.617 15.866,6.042 15.866,6.567 C15.866,7.092 15.439,7.518 14.914,7.518 Z"/>
</svg>